<svg width="16" height="16" viewBox="0 0 16 16" fill="none" xmlns="http://www.w3.org/2000/svg">
<path d="M3.01176 6.52161C2.95451 6.46152 2.88716 6.41454 2.81357 6.38336C2.73997 6.35218 2.66157 6.3374 2.58284 6.33988C2.5041 6.34235 2.42658 6.36203 2.35469 6.39778C2.2828 6.43353 2.21795 6.48466 2.16385 6.54825C2.10975 6.61184 2.06746 6.68664 2.03939 6.76838C2.01132 6.85013 1.99801 6.93721 2.00024 7.02466C2.00247 7.11212 2.02018 7.19823 2.05237 7.27808C2.08456 7.35793 2.13059 7.42995 2.18784 7.49004L7.58467 13.1514C7.69601 13.2684 7.84341 13.3335 7.99663 13.3335C8.14985 13.3335 8.29725 13.2684 8.40859 13.1514L13.806 7.49004C13.8645 7.43035 13.9118 7.35834 13.945 7.2782C13.9782 7.19805 13.9968 7.11137 13.9996 7.02319C14.0024 6.93501 13.9895 6.84709 13.9614 6.76453C13.9334 6.68196 13.8909 6.60641 13.8363 6.54226C13.7818 6.4781 13.7163 6.42663 13.6437 6.39082C13.5711 6.35501 13.4928 6.33558 13.4134 6.33365C13.334 6.33173 13.255 6.34736 13.1811 6.37962C13.1071 6.41189 13.0397 6.46015 12.9827 6.52161L7.99663 11.7514L3.01176 6.52161Z" fill="black"/>
</svg>
