<svg width="20" height="32" viewBox="0 0 20 32" fill="none" xmlns="http://www.w3.org/2000/svg">
<path d="M18.6866 5.43042C18.1601 14.5595 13.1615 15.142 10.8063 14.677C8.58794 21.0452 9.52784 27.7856 10.4522 30.4391C10.4522 26.9827 8.47684 18.4114 14.8355 16.1272C16.1265 15.6635 17.3612 16.7881 17.3015 18.1586C17.1354 21.9705 16.1362 27.9453 10.4522 30.4391C9.52784 27.7856 8.58794 21.0452 10.8063 14.677C7.4961 15.0271 1.43683 13.3451 1.56291 5.13333C1.5891 3.42757 3.74334 2.51894 4.90093 3.77205C5.43265 2.65661 6.94125 2.46757 7.73176 3.41732L8.08239 3.83858C8.32167 3.29424 8.56653 2.90683 8.87088 2.53561C9.71315 1.50825 11.4867 1.42832 12.2691 2.50191C12.5119 2.83506 12.7396 3.23994 12.9441 3.77205C13.5878 2.7738 15.091 2.92237 15.5269 4.02733L15.6111 4.24068C16.66 2.9105 18.7841 3.73923 18.6866 5.43042Z" fill="#E46363"/>
<path d="M10.8063 14.677C13.1615 15.142 18.1601 14.5595 18.6866 5.43042C18.7841 3.73923 16.66 2.9105 15.6111 4.24068V4.24068M10.8063 14.677C7.4961 15.0271 1.43683 13.3451 1.56291 5.13333C1.5891 3.42757 3.74334 2.51894 4.90093 3.77205V3.77205M10.8063 14.677C10.1078 10.5396 7.33757 6.40973 4.90093 3.77205M10.8063 14.677C8.66807 12.9884 5.89849 8.80668 8.08239 3.83858M10.8063 14.677C14.5468 10.9846 14.1177 6.82536 12.9441 3.77205M10.8063 14.677C8.58794 21.0452 9.52784 27.7856 10.4522 30.4391M10.8063 14.677C11.4988 8.18271 12.7659 8.3632 13.8548 6.21792C14.1057 5.72361 15.4162 4.48783 15.6111 4.24068M4.90093 3.77205V3.77205C5.43265 2.65661 6.94125 2.46757 7.73176 3.41732L8.08239 3.83858M8.08239 3.83858C8.32167 3.29424 8.56653 2.90683 8.87088 2.53561C9.71315 1.50825 11.4867 1.42832 12.2691 2.50191C12.5119 2.83506 12.7396 3.23994 12.9441 3.77205M12.9441 3.77205V3.77205C13.5878 2.7738 15.091 2.92237 15.5269 4.02733L15.6111 4.24068M10.4522 30.4391C16.1362 27.9453 17.1354 21.9705 17.3015 18.1586C17.3612 16.7881 16.1265 15.6635 14.8355 16.1272C8.47684 18.4114 10.4522 26.9827 10.4522 30.4391Z" stroke="black" stroke-width="0.780488"/>
</svg>
