<svg width="32" height="32" viewBox="0 0 32 32" fill="none" xmlns="http://www.w3.org/2000/svg">
<path d="M16 1C7.72 1 1 7.72 1 16C1 24.28 7.72 31 16 31C24.28 31 31 24.28 31 16C31 7.72 24.28 1 16 1ZM22.96 11.2C22.735 13.57 21.76 19.33 21.265 21.985C21.055 23.11 20.635 23.485 20.245 23.53C19.375 23.605 18.715 22.96 17.875 22.405C16.555 21.535 15.805 20.995 14.53 20.155C13.045 19.18 14.005 18.64 14.86 17.77C15.085 17.545 18.925 14.05 19 13.735C19.0104 13.6873 19.009 13.6378 18.996 13.5907C18.9829 13.5437 18.9585 13.5005 18.925 13.465C18.835 13.39 18.715 13.42 18.61 13.435C18.475 13.465 16.375 14.86 12.28 17.62C11.68 18.025 11.14 18.235 10.66 18.22C10.12 18.205 9.1 17.92 8.335 17.665C7.39 17.365 6.655 17.2 6.715 16.675C6.745 16.405 7.12 16.135 7.825 15.85C12.205 13.945 15.115 12.685 16.57 12.085C20.74 10.345 21.595 10.045 22.165 10.045C22.285 10.045 22.57 10.075 22.75 10.225C22.9 10.345 22.945 10.51 22.96 10.63C22.945 10.72 22.975 10.99 22.96 11.2Z" fill="#171616"/>
</svg>
