<svg width="24" height="24" viewBox="0 0 24 24" fill="none" xmlns="http://www.w3.org/2000/svg">
<path d="M16 1.75V3H21.25C21.4489 3 21.6397 3.07902 21.7803 3.21967C21.921 3.36032 22 3.55109 22 3.75C22 3.94891 21.921 4.13968 21.7803 4.28033C21.6397 4.42098 21.4489 4.5 21.25 4.5H2.75C2.55109 4.5 2.36032 4.42098 2.21967 4.28033C2.07902 4.13968 2 3.94891 2 3.75C2 3.55109 2.07902 3.36032 2.21967 3.21967C2.36032 3.07902 2.55109 3 2.75 3H8V1.75C8 0.784 8.784 0 9.75 0H14.25C15.216 0 16 0.784 16 1.75ZM9.5 1.75V3H14.5V1.75C14.5 1.6837 14.4737 1.62011 14.4268 1.57322C14.3799 1.52634 14.3163 1.5 14.25 1.5H9.75C9.6837 1.5 9.62011 1.52634 9.57322 1.57322C9.52634 1.62011 9.5 1.6837 9.5 1.75ZM4.997 6.178C4.98845 6.07926 4.96041 5.9832 4.91452 5.89536C4.86862 5.80752 4.80576 5.72965 4.72959 5.66625C4.65341 5.60284 4.56542 5.55517 4.47071 5.52598C4.376 5.49678 4.27644 5.48665 4.17779 5.49617C4.07914 5.50568 3.98336 5.53465 3.89597 5.58141C3.80858 5.62817 3.73133 5.69178 3.66868 5.76857C3.60602 5.84536 3.55921 5.93381 3.53095 6.0288C3.50268 6.12379 3.49352 6.22345 3.504 6.322L4.916 20.92C4.95823 21.3527 5.16001 21.7542 5.48203 22.0462C5.80405 22.3383 6.22325 22.5001 6.658 22.5H17.342C17.7769 22.5 18.1962 22.3382 18.5183 22.0459C18.8403 21.7536 19.042 21.3519 19.084 20.919L20.497 6.322C20.5161 6.12388 20.4557 5.9263 20.3291 5.7727C20.2025 5.61911 20.0201 5.5221 19.822 5.503C19.6239 5.4839 19.4263 5.54429 19.2727 5.67088C19.1191 5.79747 19.0221 5.97988 19.003 6.178L17.591 20.774C17.585 20.8359 17.5562 20.8933 17.5102 20.9351C17.4641 20.9769 17.4042 21 17.342 21H6.658C6.59582 21 6.53587 20.9769 6.48983 20.9351C6.44379 20.8933 6.41497 20.8359 6.409 20.774L4.997 6.178Z" fill="black" fill-opacity="0.5"/>
<path d="M9.20584 7.50106C9.30421 7.49524 9.40276 7.50887 9.49586 7.54115C9.58896 7.57344 9.67479 7.62376 9.74843 7.68923C9.82208 7.75471 9.8821 7.83405 9.92507 7.92273C9.96803 8.01141 9.9931 8.10769 9.99884 8.20606L10.4988 16.7061C10.5105 16.9048 10.4427 17.1001 10.3104 17.2489C10.1781 17.3977 9.99212 17.4879 9.79334 17.4996C9.59456 17.5112 9.39929 17.4435 9.25048 17.3111C9.10167 17.1788 9.01151 16.9928 8.99984 16.7941L8.49984 8.29406C8.49403 8.19569 8.50765 8.09714 8.53994 8.00404C8.57223 7.91094 8.62254 7.82511 8.68802 7.75147C8.75349 7.67782 8.83283 7.6178 8.92151 7.57484C9.01019 7.53187 9.10647 7.5068 9.20484 7.50106H9.20584ZM15.4988 8.29406C15.5105 8.09528 15.4427 7.90001 15.3104 7.7512C15.1781 7.60239 14.9921 7.51223 14.7933 7.50056C14.5946 7.48889 14.3993 7.55666 14.2505 7.68897C14.1017 7.82128 14.0115 8.00728 13.9998 8.20606L13.4998 16.7061C13.4882 16.9047 13.5559 17.0999 13.6881 17.2486C13.8203 17.3973 14.0062 17.4874 14.2048 17.4991C14.4035 17.5107 14.5986 17.443 14.7474 17.3108C14.8961 17.1786 14.9862 16.9927 14.9978 16.7941L15.4988 8.29406Z" fill="black" fill-opacity="0.5"/>
</svg>
