<svg width="32" height="32" viewBox="0 0 32 32" fill="none" xmlns="http://www.w3.org/2000/svg">
<path d="M16 1C7.71562 1 1 7.71562 1 16C1 24.2844 7.71562 31 16 31C24.2844 31 31 24.2844 31 16C31 7.71562 24.2844 1 16 1ZM21.7687 17.9234C21.7687 17.9234 23.0953 19.2328 23.4219 19.8406C23.4312 19.8531 23.4359 19.8656 23.4391 19.8719C23.5719 20.0953 23.6031 20.2687 23.5375 20.3984C23.4281 20.6141 23.0531 20.7203 22.925 20.7297H20.5812C20.4187 20.7297 20.0781 20.6875 19.6656 20.4031C19.3484 20.1812 19.0359 19.8172 18.7312 19.4625C18.2766 18.9344 17.8828 18.4781 17.4859 18.4781C17.4355 18.478 17.3854 18.4859 17.3375 18.5016C17.0375 18.5984 16.6531 19.0266 16.6531 20.1672C16.6531 20.5234 16.3719 20.7281 16.1734 20.7281H15.1C14.7344 20.7281 12.8297 20.6 11.1422 18.8203C9.07656 16.6406 7.21719 12.2687 7.20156 12.2281C7.08437 11.9453 7.32656 11.7937 7.59062 11.7937H9.95781C10.2734 11.7937 10.3766 11.9859 10.4484 12.1562C10.5328 12.3547 10.8422 13.1437 11.35 14.0312C12.1734 15.4781 12.6781 16.0656 13.0828 16.0656C13.1587 16.0647 13.2332 16.0454 13.3 16.0094C13.8281 15.7156 13.7297 13.8328 13.7062 13.4422C13.7062 13.3687 13.7047 12.6 13.4344 12.2312C13.2406 11.9641 12.9109 11.8625 12.7109 11.825C12.7919 11.7133 12.8985 11.6227 13.0219 11.5609C13.3844 11.3797 14.0375 11.3531 14.6859 11.3531H15.0469C15.75 11.3625 15.9313 11.4078 16.1859 11.4719C16.7016 11.5953 16.7125 11.9281 16.6672 13.0672C16.6531 13.3906 16.6391 13.7562 16.6391 14.1875C16.6391 14.2812 16.6344 14.3812 16.6344 14.4875C16.6187 15.0672 16.6 15.725 17.0094 15.9953C17.0628 16.0288 17.1245 16.0467 17.1875 16.0469C17.3297 16.0469 17.7578 16.0469 18.9172 14.0578C19.2747 13.4176 19.5855 12.7523 19.8469 12.0672C19.8703 12.0266 19.9391 11.9016 20.0203 11.8531C20.0803 11.8226 20.1468 11.807 20.2141 11.8078H22.9969C23.3 11.8078 23.5078 11.8531 23.5469 11.9703C23.6156 12.1562 23.5344 12.7234 22.2641 14.4437L21.6969 15.1922C20.5453 16.7016 20.5453 16.7781 21.7687 17.9234Z" fill="#171616"/>
</svg>
