<svg width="128" height="32" viewBox="0 0 128 32" fill="none" xmlns="http://www.w3.org/2000/svg">
<path d="M18.6866 5.43042C18.1601 14.5595 13.1615 15.142 10.8063 14.677C8.58794 21.0452 9.52784 27.7856 10.4522 30.4391C10.4522 26.9827 8.47684 18.4114 14.8355 16.1272C16.1265 15.6635 17.3612 16.7881 17.3015 18.1586C17.1354 21.9705 16.1362 27.9453 10.4522 30.4391C9.52784 27.7856 8.58794 21.0452 10.8063 14.677C7.4961 15.0271 1.43683 13.3451 1.56291 5.13333C1.5891 3.42757 3.74334 2.51894 4.90093 3.77205C5.43265 2.65661 6.94125 2.46757 7.73176 3.41732L8.08239 3.83858C8.32167 3.29424 8.56653 2.90683 8.87088 2.53561C9.71315 1.50825 11.4867 1.42832 12.2691 2.50191C12.5119 2.83506 12.7396 3.23994 12.9441 3.77205C13.5878 2.7738 15.091 2.92237 15.5269 4.02733L15.6111 4.24068C16.66 2.9105 18.7841 3.73923 18.6866 5.43042Z" fill="#E46363"/>
<path d="M10.8063 14.677C13.1615 15.142 18.1601 14.5595 18.6866 5.43042C18.7841 3.73923 16.66 2.9105 15.6111 4.24068V4.24068M10.8063 14.677C7.4961 15.0271 1.43683 13.3451 1.56291 5.13333C1.5891 3.42757 3.74334 2.51894 4.90093 3.77205V3.77205M10.8063 14.677C10.1078 10.5396 7.33757 6.40973 4.90093 3.77205M10.8063 14.677C8.66807 12.9884 5.89849 8.80668 8.08239 3.83858M10.8063 14.677C14.5468 10.9846 14.1177 6.82536 12.9441 3.77205M10.8063 14.677C8.58794 21.0452 9.52784 27.7856 10.4522 30.4391M10.8063 14.677C11.4988 8.18271 12.7659 8.3632 13.8548 6.21792C14.1057 5.72361 15.4162 4.48783 15.6111 4.24068M4.90093 3.77205V3.77205C5.43265 2.65661 6.94125 2.46757 7.73176 3.41732L8.08239 3.83858M8.08239 3.83858C8.32167 3.29424 8.56653 2.90683 8.87088 2.53561C9.71315 1.50825 11.4867 1.42832 12.2691 2.50191C12.5119 2.83506 12.7396 3.23994 12.9441 3.77205M12.9441 3.77205V3.77205C13.5878 2.7738 15.091 2.92237 15.5269 4.02733L15.6111 4.24068M10.4522 30.4391C16.1362 27.9453 17.1354 21.9705 17.3015 18.1586C17.3612 16.7881 16.1265 15.6635 14.8355 16.1272C8.47684 18.4114 10.4522 26.9827 10.4522 30.4391Z" stroke="black" stroke-width="0.780488"/>
<path d="M29.548 22V9.526H37.072V11.02H31.294V14.782H36.424V16.258H31.294V22H29.548ZM46.722 20.488V22H39.216V9.526H40.962V20.488H46.722ZM47.2374 15.754C47.2374 14.686 47.3934 13.744 47.7054 12.928C48.0294 12.112 48.4614 11.434 49.0014 10.894C49.5534 10.342 50.1894 9.928 50.9094 9.652C51.6414 9.376 52.4154 9.238 53.2314 9.238C54.0354 9.238 54.7914 9.376 55.4994 9.652C56.2194 9.928 56.8494 10.342 57.3894 10.894C57.9294 11.434 58.3554 12.112 58.6674 12.928C58.9914 13.744 59.1534 14.686 59.1534 15.754C59.1534 16.822 58.9914 17.764 58.6674 18.58C58.3554 19.396 57.9294 20.08 57.3894 20.632C56.8494 21.172 56.2194 21.58 55.4994 21.856C54.7914 22.132 54.0354 22.27 53.2314 22.27C52.4154 22.27 51.6414 22.132 50.9094 21.856C50.1894 21.58 49.5534 21.172 49.0014 20.632C48.4614 20.08 48.0294 19.396 47.7054 18.58C47.3934 17.764 47.2374 16.822 47.2374 15.754ZM49.0734 15.754C49.0734 16.51 49.1694 17.2 49.3614 17.824C49.5534 18.436 49.8234 18.958 50.1714 19.39C50.5314 19.822 50.9634 20.158 51.4674 20.398C51.9834 20.626 52.5594 20.74 53.1954 20.74C53.8314 20.74 54.4014 20.626 54.9054 20.398C55.4094 20.158 55.8354 19.822 56.1834 19.39C56.5434 18.958 56.8194 18.436 57.0114 17.824C57.2034 17.2 57.2994 16.51 57.2994 15.754C57.2994 14.998 57.2034 14.314 57.0114 13.702C56.8194 13.078 56.5434 12.55 56.1834 12.118C55.8354 11.686 55.4094 11.356 54.9054 11.128C54.4014 10.888 53.8314 10.768 53.1954 10.768C52.5594 10.768 51.9834 10.888 51.4674 11.128C50.9634 11.356 50.5314 11.686 50.1714 12.118C49.8234 12.55 49.5534 13.078 49.3614 13.702C49.1694 14.314 49.0734 14.998 49.0734 15.754ZM68.2919 13.54C67.7879 15.148 67.2779 16.636 66.7619 18.004C66.2459 19.372 65.7299 20.704 65.2139 22H63.4679C62.8319 20.164 62.2679 18.226 61.7759 16.186C61.2959 14.146 60.8459 11.926 60.4259 9.526H62.2619C62.4299 10.462 62.6039 11.398 62.7839 12.334C62.9639 13.27 63.1499 14.182 63.3419 15.07C63.5339 15.946 63.7259 16.786 63.9179 17.59C64.1099 18.394 64.3079 19.138 64.5119 19.822C64.9919 18.562 65.5019 17.182 66.0419 15.682C66.5819 14.17 67.0859 12.61 67.5539 11.002H69.0659C69.5339 12.61 70.0439 14.17 70.5959 15.682C71.1479 17.182 71.6639 18.562 72.1439 19.822C72.3359 19.15 72.5279 18.412 72.7199 17.608C72.9119 16.804 73.0979 15.964 73.2779 15.088C73.4699 14.2 73.6559 13.288 73.8359 12.352C74.0159 11.404 74.1899 10.462 74.3579 9.526H76.1399C75.7079 11.926 75.2459 14.146 74.7539 16.186C74.2739 18.226 73.7219 20.164 73.0979 22H71.3519C70.8239 20.704 70.3079 19.372 69.8039 18.004C69.2999 16.636 68.7959 15.148 68.2919 13.54ZM85.5194 15.862H87.2654V21.694C87.1214 21.742 86.9114 21.796 86.6354 21.856C86.3714 21.916 86.0594 21.976 85.6994 22.036C85.3514 22.096 84.9674 22.144 84.5474 22.18C84.1274 22.228 83.7014 22.252 83.2694 22.252C82.3934 22.252 81.5954 22.108 80.8754 21.82C80.1554 21.532 79.5374 21.112 79.0214 20.56C78.5054 20.008 78.1034 19.33 77.8154 18.526C77.5394 17.722 77.4014 16.798 77.4014 15.754C77.4014 14.71 77.5574 13.786 77.8694 12.982C78.1934 12.166 78.6254 11.482 79.1654 10.93C79.7054 10.378 80.3354 9.958 81.0554 9.67C81.7874 9.382 82.5674 9.238 83.3954 9.238C83.9594 9.238 84.4574 9.274 84.8894 9.346C85.3334 9.418 85.7114 9.502 86.0234 9.598C86.3354 9.694 86.5874 9.79 86.7794 9.886C86.9834 9.982 87.1214 10.054 87.1934 10.102L86.6354 11.56C86.2874 11.332 85.8254 11.146 85.2494 11.002C84.6734 10.846 84.0854 10.768 83.4854 10.768C82.8494 10.768 82.2674 10.882 81.7394 11.11C81.2234 11.338 80.7794 11.668 80.4074 12.1C80.0474 12.532 79.7654 13.06 79.5614 13.684C79.3574 14.296 79.2554 14.986 79.2554 15.754C79.2554 16.498 79.3394 17.176 79.5074 17.788C79.6874 18.4 79.9514 18.928 80.2994 19.372C80.6594 19.804 81.0974 20.14 81.6134 20.38C82.1414 20.62 82.7594 20.74 83.4674 20.74C83.9714 20.74 84.3974 20.716 84.7454 20.668C85.1054 20.608 85.3634 20.554 85.5194 20.506V15.862ZM97.5052 20.488V22H89.9992V9.526H91.7452V20.488H97.5052ZM98.0206 15.754C98.0206 14.686 98.1766 13.744 98.4886 12.928C98.8126 12.112 99.2446 11.434 99.7846 10.894C100.337 10.342 100.973 9.928 101.693 9.652C102.425 9.376 103.199 9.238 104.015 9.238C104.819 9.238 105.575 9.376 106.283 9.652C107.003 9.928 107.633 10.342 108.173 10.894C108.713 11.434 109.139 12.112 109.451 12.928C109.775 13.744 109.937 14.686 109.937 15.754C109.937 16.822 109.775 17.764 109.451 18.58C109.139 19.396 108.713 20.08 108.173 20.632C107.633 21.172 107.003 21.58 106.283 21.856C105.575 22.132 104.819 22.27 104.015 22.27C103.199 22.27 102.425 22.132 101.693 21.856C100.973 21.58 100.337 21.172 99.7846 20.632C99.2446 20.08 98.8126 19.396 98.4886 18.58C98.1766 17.764 98.0206 16.822 98.0206 15.754ZM99.8566 15.754C99.8566 16.51 99.9526 17.2 100.145 17.824C100.337 18.436 100.607 18.958 100.955 19.39C101.315 19.822 101.747 20.158 102.251 20.398C102.767 20.626 103.343 20.74 103.979 20.74C104.615 20.74 105.185 20.626 105.689 20.398C106.193 20.158 106.619 19.822 106.967 19.39C107.327 18.958 107.603 18.436 107.795 17.824C107.987 17.2 108.083 16.51 108.083 15.754C108.083 14.998 107.987 14.314 107.795 13.702C107.603 13.078 107.327 12.55 106.967 12.118C106.619 11.686 106.193 11.356 105.689 11.128C105.185 10.888 104.615 10.768 103.979 10.768C103.343 10.768 102.767 10.888 102.251 11.128C101.747 11.356 101.315 11.686 100.955 12.118C100.607 12.55 100.337 13.078 100.145 13.702C99.9526 14.314 99.8566 14.998 99.8566 15.754ZM119.075 13.54C118.571 15.148 118.061 16.636 117.545 18.004C117.029 19.372 116.513 20.704 115.997 22H114.251C113.615 20.164 113.051 18.226 112.559 16.186C112.079 14.146 111.629 11.926 111.209 9.526H113.045C113.213 10.462 113.387 11.398 113.567 12.334C113.747 13.27 113.933 14.182 114.125 15.07C114.317 15.946 114.509 16.786 114.701 17.59C114.893 18.394 115.091 19.138 115.295 19.822C115.775 18.562 116.285 17.182 116.825 15.682C117.365 14.17 117.869 12.61 118.337 11.002H119.849C120.317 12.61 120.827 14.17 121.379 15.682C121.931 17.182 122.447 18.562 122.927 19.822C123.119 19.15 123.311 18.412 123.503 17.608C123.695 16.804 123.881 15.964 124.061 15.088C124.253 14.2 124.439 13.288 124.619 12.352C124.799 11.404 124.973 10.462 125.141 9.526H126.923C126.491 11.926 126.029 14.146 125.537 16.186C125.057 18.226 124.505 20.164 123.881 22H122.135C121.607 20.704 121.091 19.372 120.587 18.004C120.083 16.636 119.579 15.148 119.075 13.54Z" fill="black"/>
</svg>
